<svg width="30" height="30" viewBox="0 0 30 30" fill="none" xmlns="http://www.w3.org/2000/svg">
<g clip-path="url(#clip0_5_2)">
<path d="M0.640189 14.8205C0.639485 17.341 1.30324 19.8022 2.56535 21.9715L0.519485 29.3834L8.16386 27.3945C10.2782 28.5366 12.6472 29.1351 15.0545 29.1352H15.0608C23.0079 29.1352 29.477 22.7186 29.4804 14.8317C29.4819 11.01 27.9833 7.41627 25.2606 4.71255C22.5383 2.00906 18.9178 0.519414 15.0602 0.51767C7.11222 0.51767 0.643587 6.93395 0.640306 14.8205" fill="url(#paint0_linear_5_2)"></path>
<path d="M0.125391 14.8158C0.12457 17.4271 0.812109 19.9763 2.11922 22.2233L0 29.9008L7.91848 27.8407C10.1003 29.021 12.5568 29.6434 15.0564 29.6443H15.0628C23.295 29.6443 29.9965 22.9969 30 14.8277C30.0014 10.8686 28.4489 7.1457 25.6289 4.34512C22.8086 1.54488 19.0586 0.00162791 15.0628 0C6.82922 0 0.128672 6.64651 0.125391 14.8158ZM4.84102 21.8363L4.54535 21.3706C3.30246 19.4096 2.64645 17.1436 2.64738 14.8167C2.65008 8.02663 8.2193 2.50233 15.0675 2.50233C18.3839 2.50372 21.5006 3.78651 23.8448 6.11395C26.1889 8.44163 27.4788 11.5358 27.478 14.8267C27.475 21.6169 21.9056 27.1419 15.0628 27.1419H15.0579C12.8298 27.1407 10.6446 26.547 8.73891 25.425L8.28539 25.1581L3.58641 26.3806L4.84102 21.8362V21.8363Z" fill="url(#paint1_linear_5_2)"></path>
<path d="M11.3294 8.62186C11.0498 8.00523 10.7556 7.99279 10.4897 7.98197C10.2719 7.97267 10.023 7.97337 9.77437 7.97337C9.52546 7.97337 9.12105 8.06628 8.77921 8.43663C8.43703 8.80732 7.47281 9.70314 7.47281 11.5251C7.47281 13.3472 8.81027 15.108 8.99672 15.3553C9.18339 15.6022 11.5787 19.4608 15.3723 20.9452C18.5251 22.1788 19.1667 21.9335 19.851 21.8716C20.5353 21.81 22.0593 20.976 22.3702 20.1113C22.6813 19.2466 22.6813 18.5055 22.588 18.3506C22.4947 18.1963 22.2458 18.1036 21.8726 17.9185C21.4992 17.7333 19.6643 16.8373 19.3222 16.7137C18.98 16.5902 18.7312 16.5286 18.4823 16.8994C18.2334 17.2696 17.5187 18.1036 17.3009 18.3506C17.0832 18.5981 16.8654 18.629 16.4923 18.4437C16.1188 18.2579 14.9168 17.8673 13.4907 16.6058C12.3812 15.6242 11.6321 14.412 11.4144 14.0412C11.1967 13.6709 11.3911 13.4702 11.5782 13.2857C11.7459 13.1198 11.9516 12.8533 12.1384 12.6371C12.3245 12.4208 12.3866 12.2665 12.5111 12.0195C12.6356 11.7723 12.5733 11.556 12.4801 11.3708C12.3866 11.1856 11.6613 9.35407 11.3294 8.62186Z" fill="white"></path>
</g>
<defs>
<linearGradient id="paint0_linear_5_2" x1="1448.56" y1="2887.09" x2="1448.56" y2="0.51767" gradientUnits="userSpaceOnUse">
<stop stop-color="#1FAF38"></stop>
<stop offset="1" stop-color="#60D669"></stop>
</linearGradient>
<linearGradient id="paint1_linear_5_2" x1="1500" y1="2990.08" x2="1500" y2="0" gradientUnits="userSpaceOnUse">
<stop stop-color="#F9F9F9"></stop>
<stop offset="1" stop-color="white"></stop>
</linearGradient>
<clipPath id="clip0_5_2">
<rect width="30" height="30" fill="white"></rect>
</clipPath>
</defs>
</svg>