<svg width="110" height="33" viewBox="0 0 110 33" fill="none" xmlns="http://www.w3.org/2000/svg">
<path d="M22.996 7.42037C21.1251 6.74307 19.0844 6.3668 16.9263 6.30482C16.9263 6.30482 15.5209 6.27383 15.4208 6.27383C17.3527 4.47214 19.1801 3.48497 19.9372 3.11755L24.9497 8.21718C24.9279 8.20833 23.7096 7.67712 22.996 7.41594V7.42037ZM24.3362 23.4762C19.4978 25.1363 13.8979 24.7689 9.19002 22.2235C9.01163 16.5218 10.6128 11.6346 14.0371 7.70811C14.7986 7.61514 15.5818 7.56202 16.5086 7.57088C21.3426 11.1654 24.4493 17.1814 24.3362 23.4807V23.4762ZM7.94561 21.4886C7.94561 23.0468 8.08049 24.7025 8.35896 26.4112L0.648823 18.5714C-0.212694 17.6949 -0.212694 16.2695 0.648823 15.393L15.386 0.395089C15.9038 -0.131696 16.7435 -0.131696 17.2613 0.395089C17.8879 1.03254 18.5884 1.74525 19.0017 2.1658C17.8226 2.77669 15.708 4.24638 13.4236 6.4996C13.4236 6.4996 12.6187 7.41151 12.1618 8.02241C10.008 10.8954 7.94126 15.2734 7.94561 21.4842V21.4886ZM13.2017 31.3382L9.92971 28.0093C9.61208 26.5219 9.39017 25.0787 9.27704 23.6843C13.8239 25.911 19.2454 26.4245 24.3057 24.822C24.3057 24.822 25.2543 24.49 25.5675 24.3749C25.8808 24.2598 26.3899 24.0384 26.8337 23.8304L19.4543 31.3382C17.7269 33.0956 14.9291 33.0956 13.2061 31.3382H13.2017ZM31.8201 18.7529C30.0927 20.5059 27.9954 21.9977 25.5806 23.0026C25.5327 17.3275 23.0352 11.586 18.658 7.70368C20.9858 7.99142 23.2832 8.70413 25.4544 9.89493C27.7039 11.006 30.0274 13.3434 32.0159 15.3974C32.8687 16.2783 32.86 17.6905 32.0028 18.567C31.9288 18.6422 31.8679 18.7042 31.8157 18.7573L31.8201 18.7529Z" fill="white"/>
<path d="M42.2839 10.3546C42.2839 7.58344 44.4203 5.44531 47.1093 5.44531C49.7983 5.44531 51.9521 7.58344 51.9521 10.3546C51.9521 13.1258 49.7939 15.2639 47.1093 15.2639C44.4247 15.2639 42.2839 13.1258 42.2839 10.3546ZM49.5938 10.3546C49.5938 8.84949 48.5147 7.78707 47.1093 7.78707C45.7039 7.78707 44.6422 8.84507 44.6422 10.3546C44.6422 11.8641 45.7213 12.9221 47.1093 12.9221C48.4973 12.9221 49.5938 11.8641 49.5938 10.3546Z" fill="white"/>
<path d="M65.2229 9.2966V15.0071H62.8646V9.59762C62.8646 8.33156 62.1162 7.68083 61.0545 7.68083C59.9015 7.68083 59.0443 8.36698 59.0443 9.98717V15.0071H56.686V5.70649H59.0443V6.74678C59.5926 5.91012 60.5411 5.44531 61.7681 5.44531C63.7044 5.44531 65.2229 6.82204 65.2229 9.29217V9.2966Z" fill="white"/>
<path d="M65.4796 10.3546C65.4796 7.58344 67.616 5.44531 70.305 5.44531C72.994 5.44531 75.1477 7.58344 75.1477 10.3546C75.1477 13.1258 72.9896 15.2639 70.305 15.2639C67.6204 15.2639 65.4796 13.1258 65.4796 10.3546ZM72.7894 10.3546C72.7894 8.84949 71.7104 7.78707 70.305 7.78707C68.8996 7.78707 67.8379 8.84507 67.8379 10.3546C67.8379 11.8641 68.917 12.9221 70.305 12.9221C71.693 12.9221 72.7894 11.8641 72.7894 10.3546Z" fill="white"/>
<path d="M83.7716 5.70703L80.2994 15.0032H77.6148L74.1426 5.70703H76.7358L78.9462 12.2144L81.1739 5.70703H83.7672H83.7716Z" fill="white"/>
<path d="M82.7882 10.3546C82.7882 7.58344 84.9246 5.44531 87.6136 5.44531C90.3025 5.44531 92.4563 7.58344 92.4563 10.3546C92.4563 13.1258 90.2982 15.2639 87.6136 15.2639C84.9289 15.2639 82.7882 13.1258 82.7882 10.3546ZM90.098 10.3546C90.098 8.84949 89.019 7.78707 87.6136 7.78707C86.2082 7.78707 85.1465 8.84507 85.1465 10.3546C85.1465 11.8641 86.2256 12.9221 87.6136 12.9221C89.0016 12.9221 90.098 11.8641 90.098 10.3546Z" fill="white"/>
<path d="M55.8463 21.2271V26.9553H53.488V21.3953C53.488 20.2974 52.9397 19.629 51.952 19.629C50.9121 19.629 50.2507 20.3373 50.2507 21.7317V26.9553H47.8925V21.3953C47.8925 20.2974 47.3442 19.629 46.3565 19.629C45.3688 19.629 44.6378 20.3373 44.6378 21.7317V26.9553H42.2795V17.6591H44.6378V18.6463C45.1513 17.8672 46.0084 17.4023 47.1789 17.4023C48.3493 17.4023 49.1543 17.8849 49.6633 18.7392C50.229 17.9026 51.1427 17.4023 52.3871 17.4023C54.4713 17.4023 55.8419 18.9074 55.8419 21.2315L55.8463 21.2271Z" fill="white"/>
<path d="M61.1459 25.0396C62.0596 25.0396 62.7906 24.65 63.1909 24.1099L65.0923 25.2255C64.2352 26.4915 62.8646 27.2131 61.1067 27.2131C58.0349 27.2131 56.0986 25.075 56.0986 22.3038C56.0986 19.5327 58.0523 17.3945 60.924 17.3945C63.6304 17.3945 65.5492 19.5681 65.5492 22.3038C65.5492 22.658 65.5144 22.9723 65.4578 23.291H58.5657C58.8964 24.5172 59.9015 25.0396 61.1416 25.0396H61.1459ZM63.1909 21.4317C62.8994 20.0949 61.9117 19.5548 60.924 19.5548C59.6622 19.5548 58.805 20.2409 58.5309 21.4317H63.1909Z" fill="white"/>
<path d="M71.0534 17.4688V20.1469C69.8307 19.9964 68.2774 20.5542 68.2774 22.5064V26.9509H65.9191V17.6547H68.2774V19.2527C68.7516 17.9867 69.9047 17.4688 71.0534 17.4688Z" fill="white"/>
<path d="M71.0533 22.3038C71.0533 19.5327 73.0984 17.3945 75.8787 17.3945C77.6714 17.3945 79.2247 18.3596 79.9731 19.7938L77.9455 21.0023C77.58 20.2409 76.7924 19.7584 75.8613 19.7584C74.4559 19.7584 73.4116 20.8164 73.4116 22.3038C73.4116 23.7912 74.4516 24.8315 75.8613 24.8315C76.8098 24.8315 77.5974 24.3667 77.9629 23.6053L80.0079 24.7961C79.2203 26.2481 77.667 27.2131 75.8787 27.2131C73.1027 27.2131 71.0533 25.075 71.0533 22.3038Z" fill="white"/>
<path d="M89.7848 17.6557V26.9519H87.4265V25.8541C86.7695 26.6907 85.7818 27.2131 84.446 27.2131C82.0137 27.2131 80.0035 25.075 80.0035 22.3038C80.0035 19.5327 82.0137 17.3945 84.446 17.3945C85.7818 17.3945 86.7651 17.9169 87.4265 18.7535V17.6557H89.7848ZM87.4265 22.3038C87.4265 20.7412 86.3474 19.6832 84.8855 19.6832C83.4235 19.6832 82.3618 20.7412 82.3618 22.3038C82.3618 23.8665 83.4409 24.9245 84.8855 24.9245C86.33 24.9245 87.4265 23.8665 87.4265 22.3038Z" fill="white"/>
<path d="M99.9272 13.9375V26.9522H97.5689V25.8544C96.9119 26.7087 95.9416 27.2134 94.6101 27.2134C92.1605 27.2134 90.1503 25.0752 90.1503 22.3041C90.1503 19.5329 92.1605 17.3948 94.6101 17.3948C95.9459 17.3948 96.9119 17.895 97.5689 18.7538V13.9375H99.9272ZM97.5689 22.3041C97.5689 20.7414 96.4898 19.6834 95.0452 19.6834C93.6007 19.6834 92.5042 20.7414 92.5042 22.3041C92.5042 23.8667 93.5833 24.9247 95.0452 24.9247C96.5072 24.9247 97.5689 23.8667 97.5689 22.3041Z" fill="white"/>
<path d="M100.328 22.3038C100.328 19.5327 102.464 17.3945 105.153 17.3945C107.842 17.3945 109.996 19.5327 109.996 22.3038C109.996 25.075 107.838 27.2131 105.153 27.2131C102.468 27.2131 100.328 25.075 100.328 22.3038ZM107.637 22.3038C107.637 20.7987 106.558 19.7363 105.153 19.7363C103.747 19.7363 102.686 20.7943 102.686 22.3038C102.686 23.8133 103.765 24.8713 105.153 24.8713C106.541 24.8713 107.637 23.8133 107.637 22.3038Z" fill="white"/>
</svg>
