<svg width="120" height="36" viewBox="0 0 120 36" fill="none" xmlns="http://www.w3.org/2000/svg">
<g clip-path="url(#clip0_517_4)">
<path d="M25.0861 7.9974C23.045 7.26735 20.8189 6.86176 18.4645 6.79496C18.4645 6.79496 16.9314 6.76156 16.8222 6.76156C18.9297 4.81952 20.9233 3.75546 21.7492 3.35941L27.2173 8.85628C27.1936 8.84674 25.8646 8.27415 25.0861 7.99263V7.9974ZM26.5481 25.3039C21.2698 27.0933 15.1609 26.6973 10.025 23.9536C9.83038 17.8078 11.5771 12.5399 15.3128 8.30755C16.1434 8.20735 16.9978 8.15009 18.0088 8.15963C23.2824 12.0342 26.6715 18.5187 26.5481 25.3087V25.3039ZM8.66745 23.1615C8.66745 24.8411 8.81459 26.6257 9.11838 28.4675L0.707319 20.017C-0.232518 19.0723 -0.232518 17.5358 0.707319 16.591L16.7842 0.424888C17.3491 -0.142931 18.2652 -0.142931 18.83 0.424888C19.5135 1.112 20.2777 1.88022 20.7287 2.33352C19.4423 2.992 17.1355 4.57617 14.6435 7.00491C14.6435 7.00491 13.7653 7.98786 13.267 8.64633C10.9174 11.7431 8.6627 16.4622 8.66745 23.1567V23.1615ZM14.4014 33.7783L10.8319 30.1901C10.4854 28.5868 10.2433 27.0313 10.1199 25.5282C15.0802 27.9283 20.9945 28.4818 26.5148 26.7545C26.5148 26.7545 27.5496 26.3966 27.8914 26.2726C28.2331 26.1485 28.7885 25.9099 29.2726 25.6857L21.2223 33.7783C19.3379 35.6726 16.2858 35.6726 14.4061 33.7783H14.4014ZM34.7123 20.2127C32.8279 22.1022 30.54 23.7102 27.9056 24.7934C27.8534 18.6762 25.1288 12.4875 20.3537 8.30278C22.8932 8.61293 25.3994 9.38116 27.768 10.6647C30.222 11.8624 32.7567 14.3818 34.9259 16.5958C35.8562 17.5453 35.8468 19.0675 34.9117 20.0123C34.831 20.0934 34.7645 20.1602 34.7076 20.2174L34.7123 20.2127Z" fill="#E7004C"/>
<path d="M46.1279 11.1608C46.1279 8.17382 48.4585 5.86914 51.392 5.86914C54.3254 5.86914 56.675 8.17382 56.675 11.1608C56.675 14.1478 54.3206 16.4525 51.392 16.4525C48.4633 16.4525 46.1279 14.1478 46.1279 11.1608ZM54.1023 11.1608C54.1023 9.53849 52.9251 8.39331 51.392 8.39331C49.8588 8.39331 48.7006 9.53372 48.7006 11.1608C48.7006 12.7879 49.8778 13.9284 51.392 13.9284C52.9061 13.9284 54.1023 12.7879 54.1023 11.1608Z" fill="white"/>
<path d="M71.1522 10.0204V16.1758H68.5795V10.3449C68.5795 8.98022 67.7631 8.27879 66.6049 8.27879C65.347 8.27879 64.4119 9.01839 64.4119 10.7648V16.1758H61.8392V6.15066H64.4119V7.27199C65.01 6.37016 66.0448 5.86914 67.3833 5.86914C69.4956 5.86914 71.1522 7.3531 71.1522 10.0157V10.0204Z" fill="white"/>
<path d="M71.4323 11.1608C71.4323 8.17382 73.7629 5.86914 76.6963 5.86914C79.6297 5.86914 81.9793 8.17382 81.9793 11.1608C81.9793 14.1478 79.625 16.4525 76.6963 16.4525C73.7676 16.4525 71.4323 14.1478 71.4323 11.1608ZM79.4066 11.1608C79.4066 9.53849 78.2294 8.39331 76.6963 8.39331C75.1631 8.39331 74.0049 9.53372 74.0049 11.1608C74.0049 12.7879 75.1821 13.9284 76.6963 13.9284C78.2105 13.9284 79.4066 12.7879 79.4066 11.1608Z" fill="white"/>
<path d="M91.3871 6.15088L87.5993 16.1712H84.6706L80.8828 6.15088H83.7118L86.1231 13.1651L88.5534 6.15088H91.3824H91.3871Z" fill="white"/>
<path d="M90.3145 11.1608C90.3145 8.17382 92.6451 5.86914 95.5785 5.86914C98.5119 5.86914 100.862 8.17382 100.862 11.1608C100.862 14.1478 98.5072 16.4525 95.5785 16.4525C92.6498 16.4525 90.3145 14.1478 90.3145 11.1608ZM98.2888 11.1608C98.2888 9.53849 97.1117 8.39331 95.5785 8.39331C94.0453 8.39331 92.8871 9.53372 92.8871 11.1608C92.8871 12.7879 94.0643 13.9284 95.5785 13.9284C97.0927 13.9284 98.2888 12.7879 98.2888 11.1608Z" fill="white"/>
<path d="M60.9232 22.88V29.0544H58.3505V23.0613C58.3505 21.8779 57.7525 21.1574 56.675 21.1574C55.5405 21.1574 54.819 21.9209 54.819 23.4239V29.0544H52.2463V23.0613C52.2463 21.8779 51.6483 21.1574 50.5708 21.1574C49.4933 21.1574 48.6959 21.9209 48.6959 23.4239V29.0544H46.1232V19.0341H48.6959V20.0981C49.256 19.2583 50.191 18.7573 51.4679 18.7573C52.7447 18.7573 53.6229 19.2774 54.1782 20.1983C54.7953 19.2965 55.7921 18.7573 57.1496 18.7573C59.4233 18.7573 60.9185 20.3797 60.9185 22.8847L60.9232 22.88Z" fill="white"/>
<path d="M66.7046 26.9881C67.7014 26.9881 68.4988 26.5682 68.9355 25.9861L71.0098 27.1885C70.0747 28.5532 68.5795 29.3309 66.6619 29.3309C63.3107 29.3309 61.1985 27.0263 61.1985 24.0392C61.1985 21.0522 63.3297 18.7476 66.4625 18.7476C69.4149 18.7476 71.5082 21.0904 71.5082 24.0392C71.5082 24.421 71.4702 24.7598 71.4085 25.1033H63.8898C64.2506 26.425 65.3471 26.9881 66.6999 26.9881H66.7046ZM68.9355 23.0992C68.6175 21.6582 67.54 21.0761 66.4625 21.0761C65.086 21.0761 64.1509 21.8157 63.8519 23.0992H68.9355Z" fill="white"/>
<path d="M77.5128 18.8286V21.7154C76.179 21.5532 74.4844 22.1544 74.4844 24.2587V29.0494H71.9117V19.029H74.4844V20.7516C75.0018 19.3869 76.2597 18.8286 77.5128 18.8286Z" fill="white"/>
<path d="M77.5127 24.0392C77.5127 21.0522 79.7436 18.7476 82.7767 18.7476C84.7323 18.7476 86.4269 19.7878 87.2433 21.3338L85.0314 22.6364C84.6327 21.8157 83.7735 21.2956 82.7577 21.2956C81.2246 21.2956 80.0854 22.436 80.0854 24.0392C80.0854 25.6425 81.2198 26.7638 82.7577 26.7638C83.7925 26.7638 84.6516 26.2628 85.0504 25.4421L87.2813 26.7257C86.4222 28.2907 84.7276 29.3309 82.7767 29.3309C79.7484 29.3309 77.5127 27.0263 77.5127 24.0392Z" fill="white"/>
<path d="M97.9471 19.0291V29.0494H95.3744V27.8661C94.6576 28.7679 93.5802 29.3309 92.1229 29.3309C89.4696 29.3309 87.2766 27.0263 87.2766 24.0392C87.2766 21.0522 89.4696 18.7476 92.1229 18.7476C93.5802 18.7476 94.6529 19.3106 95.3744 20.2124V19.0291H97.9471ZM95.3744 24.0392C95.3744 22.3549 94.1972 21.2145 92.6024 21.2145C91.0075 21.2145 89.8493 22.3549 89.8493 24.0392C89.8493 25.7236 91.0265 26.864 92.6024 26.864C94.1782 26.864 95.3744 25.7236 95.3744 24.0392Z" fill="white"/>
<path d="M109.012 15.021V29.0495H106.439V27.8661C105.722 28.787 104.664 29.331 103.211 29.331C100.539 29.331 98.3458 27.0263 98.3458 24.0393C98.3458 21.0523 100.539 18.7476 103.211 18.7476C104.668 18.7476 105.722 19.2868 106.439 20.2125V15.021H109.012ZM106.439 24.0393C106.439 22.3549 105.262 21.2145 103.686 21.2145C102.11 21.2145 100.914 22.3549 100.914 24.0393C100.914 25.7237 102.091 26.8641 103.686 26.8641C105.281 26.8641 106.439 25.7237 106.439 24.0393Z" fill="white"/>
<path d="M109.448 24.0392C109.448 21.0522 111.779 18.7476 114.712 18.7476C117.646 18.7476 119.995 21.0522 119.995 24.0392C119.995 27.0263 117.641 29.3309 114.712 29.3309C111.784 29.3309 109.448 27.0263 109.448 24.0392ZM117.423 24.0392C117.423 22.4169 116.245 21.2717 114.712 21.2717C113.179 21.2717 112.021 22.4121 112.021 24.0392C112.021 25.6664 113.198 26.8068 114.712 26.8068C116.226 26.8068 117.423 25.6664 117.423 24.0392Z" fill="white"/>
</g>
<defs>
<clipPath id="clip0_517_4">
<rect width="120" height="35.2" fill="white"/>
</clipPath>
</defs>
</svg>
